<svg width="34" height="34" viewBox="0 0 34 34" fill="none" xmlns="http://www.w3.org/2000/svg">
<path d="M1.06254 8.375L1.14754 10.2237C0.588548 11.0395 0.331542 12.0247 0.420792 13.0096L1.77442 27.8846C1.87037 28.9406 2.35757 29.9225 3.14036 30.6377C3.92315 31.3528 4.945 31.7496 6.00529 31.75H19.125V29.625H6.00529C5.47516 29.6245 4.96436 29.4259 4.57316 29.0681C4.18197 28.7103 3.93863 28.2192 3.89092 27.6912L2.53729 12.8162C2.51072 12.5223 2.5457 12.226 2.63999 11.9462C2.73428 11.6665 2.88582 11.4095 3.08495 11.1916C3.28407 10.9736 3.52641 10.7996 3.79653 10.6805C4.06664 10.5615 4.3586 10.5 4.65379 10.5H29.3463C29.6415 10.5 29.9334 10.5615 30.2036 10.6805C30.4737 10.7996 30.716 10.9736 30.9151 11.1916C31.1143 11.4095 31.2658 11.6665 31.3601 11.9462C31.4544 12.226 31.4894 12.5223 31.4628 12.8162L30.8975 19H33.0332L33.5772 13.0096C33.6306 12.4216 33.5609 11.829 33.3726 11.2694C33.1843 10.7099 32.8815 10.1957 32.4834 9.75963C32.0854 9.32359 31.6008 8.97527 31.0607 8.73687C30.5206 8.49848 29.9367 8.37523 29.3463 8.375H20.8845C19.7575 8.37476 18.6766 7.92683 17.8798 7.12975L16.1203 5.37025C15.3234 4.57317 14.2426 4.12524 13.1155 4.125H5.31254C4.18537 4.125 3.10437 4.57277 2.30734 5.3698C1.51031 6.16683 1.06254 7.24783 1.06254 8.375ZM13.1155 6.25C13.6791 6.25012 14.2195 6.47408 14.6179 6.87262L16.1203 8.375H4.65379C4.14096 8.37783 3.65717 8.46283 3.20242 8.63L3.18754 8.3325C3.19867 7.77631 3.42745 7.24667 3.82477 6.8573C4.22208 6.46793 4.75624 6.24989 5.31254 6.25H13.1155Z" fill="#716156"/>
<path d="M28.6875 19.125C28.9693 19.125 29.2395 19.2369 29.4388 19.4362C29.6381 19.6355 29.75 19.9057 29.75 20.1875V23.375H32.9375C33.2193 23.375 33.4895 23.4869 33.6888 23.6862C33.8881 23.8855 34 24.1557 34 24.4375C34 24.7193 33.8881 24.9895 33.6888 25.1888C33.4895 25.3881 33.2193 25.5 32.9375 25.5H29.75V28.6875C29.75 28.9693 29.6381 29.2395 29.4388 29.4388C29.2395 29.6381 28.9693 29.75 28.6875 29.75C28.4057 29.75 28.1355 29.6381 27.9362 29.4388C27.7369 29.2395 27.625 28.9693 27.625 28.6875V25.5H24.4375C24.1557 25.5 23.8855 25.3881 23.6862 25.1888C23.4869 24.9895 23.375 24.7193 23.375 24.4375C23.375 24.1557 23.4869 23.8855 23.6862 23.6862C23.8855 23.4869 24.1557 23.375 24.4375 23.375H27.625V20.1875C27.625 19.9057 27.7369 19.6355 27.9362 19.4362C28.1355 19.2369 28.4057 19.125 28.6875 19.125Z" fill="#716156"/>
</svg>
