<svg width="34" height="34" viewBox="0 0 34 34" fill="none" xmlns="http://www.w3.org/2000/svg">
<g clip-path="url(#clip0_34_255)">
<path d="M29.75 0C30.8772 0 31.9582 0.447767 32.7552 1.2448C33.5522 2.04183 34 3.12283 34 4.25V29.75C34 30.8772 33.5522 31.9582 32.7552 32.7552C31.9582 33.5522 30.8772 34 29.75 34H4.25C3.12283 34 2.04183 33.5522 1.2448 32.7552C0.447767 31.9582 0 30.8772 0 29.75V4.25C0 3.12283 0.447767 2.04183 1.2448 1.2448C2.04183 0.447767 3.12283 0 4.25 0L29.75 0ZM12.546 22.9564L21.25 14.2524V20.1344C21.25 20.4162 21.3619 20.6864 21.5612 20.8857C21.7605 21.0849 22.0307 21.1969 22.3125 21.1969C22.5943 21.1969 22.8645 21.0849 23.0638 20.8857C23.2631 20.6864 23.375 20.4162 23.375 20.1344V11.6875C23.375 11.4057 23.2631 11.1355 23.0638 10.9362C22.8645 10.7369 22.5943 10.625 22.3125 10.625H13.8656C13.5838 10.625 13.3136 10.7369 13.1143 10.9362C12.9151 11.1355 12.8031 11.4057 12.8031 11.6875C12.8031 11.9693 12.9151 12.2395 13.1143 12.4388C13.3136 12.6381 13.5838 12.75 13.8656 12.75H19.7476L11.0436 21.454C10.8501 21.6544 10.743 21.9228 10.7454 22.2014C10.7478 22.4799 10.8596 22.7464 11.0566 22.9434C11.2536 23.1404 11.5201 23.2522 11.7986 23.2546C12.0772 23.257 12.3456 23.1499 12.546 22.9564Z" fill="#716156"/>
</g>
<defs>
<clipPath id="clip0_34_255">
<rect width="34" height="34" rx="17" fill="white"/>
</clipPath>
</defs>
</svg>
