<svg width="34" height="34" viewBox="0 0 34 34" fill="none" xmlns="http://www.w3.org/2000/svg">
<g clip-path="url(#clip0_253_4)">
<path d="M0 17C0 21.5087 1.79107 25.8327 4.97918 29.0208C8.1673 32.2089 12.4913 34 17 34C21.5087 34 25.8327 32.2089 29.0208 29.0208C32.2089 25.8327 34 21.5087 34 17C34 12.4913 32.2089 8.1673 29.0208 4.97918C25.8327 1.79107 21.5087 0 17 0C12.4913 0 8.1673 1.79107 4.97918 4.97918C1.79107 8.1673 0 12.4913 0 17ZM20.1875 10.625C21.0329 10.625 21.8436 10.9608 22.4414 11.5586C23.0392 12.1564 23.375 12.9671 23.375 13.8125V20.1875C23.375 21.0329 23.0392 21.8436 22.4414 22.4414C21.8436 23.0392 21.0329 23.375 20.1875 23.375H13.8125C12.9671 23.375 12.1564 23.0392 11.5586 22.4414C10.9608 21.8436 10.625 21.0329 10.625 20.1875V13.8125C10.625 12.9671 10.9608 12.1564 11.5586 11.5586C12.1564 10.9608 12.9671 10.625 13.8125 10.625H20.1875Z" fill="#716156"/>
</g>
<defs>
<clipPath id="clip0_253_4">
<rect width="34" height="34" fill="white" transform="matrix(-1 0 0 1 34 0)"/>
</clipPath>
</defs>
</svg>
