<svg width="17" height="17" viewBox="0 0 17 17" fill="none" xmlns="http://www.w3.org/2000/svg">
<g clip-path="url(#clip0_34_432)">
<path d="M14.875 1.0625C15.1568 1.0625 15.427 1.17444 15.6263 1.3737C15.8256 1.57296 15.9375 1.84321 15.9375 2.125V14.875C15.9375 15.1568 15.8256 15.427 15.6263 15.6263C15.427 15.8256 15.1568 15.9375 14.875 15.9375H2.125C1.84321 15.9375 1.57296 15.8256 1.3737 15.6263C1.17444 15.427 1.0625 15.1568 1.0625 14.875V2.125C1.0625 1.84321 1.17444 1.57296 1.3737 1.3737C1.57296 1.17444 1.84321 1.0625 2.125 1.0625H14.875ZM2.125 0C1.56141 0 1.02091 0.223883 0.622398 0.622398C0.223883 1.02091 0 1.56141 0 2.125L0 14.875C0 15.4386 0.223883 15.9791 0.622398 16.3776C1.02091 16.7761 1.56141 17 2.125 17H14.875C15.4386 17 15.9791 16.7761 16.3776 16.3776C16.7761 15.9791 17 15.4386 17 14.875V2.125C17 1.56141 16.7761 1.02091 16.3776 0.622398C15.9791 0.223883 15.4386 0 14.875 0L2.125 0Z" fill="#1E1E1E"/>
<path d="M8.5 4.25C8.6409 4.25 8.77602 4.30597 8.87565 4.4056C8.97528 4.50523 9.03125 4.64035 9.03125 4.78125V7.96875H12.2188C12.3596 7.96875 12.4948 8.02472 12.5944 8.12435C12.694 8.22398 12.75 8.3591 12.75 8.5C12.75 8.6409 12.694 8.77602 12.5944 8.87565C12.4948 8.97528 12.3596 9.03125 12.2188 9.03125H9.03125V12.2188C9.03125 12.3596 8.97528 12.4948 8.87565 12.5944C8.77602 12.694 8.6409 12.75 8.5 12.75C8.3591 12.75 8.22398 12.694 8.12435 12.5944C8.02472 12.4948 7.96875 12.3596 7.96875 12.2188V9.03125H4.78125C4.64035 9.03125 4.50523 8.97528 4.4056 8.87565C4.30597 8.77602 4.25 8.6409 4.25 8.5C4.25 8.3591 4.30597 8.22398 4.4056 8.12435C4.50523 8.02472 4.64035 7.96875 4.78125 7.96875H7.96875V4.78125C7.96875 4.64035 8.02472 4.50523 8.12435 4.4056C8.22398 4.30597 8.3591 4.25 8.5 4.25Z" fill="#1E1E1E"/>
</g>
<defs>
<clipPath id="clip0_34_432">
<rect width="17" height="17" fill="white"/>
</clipPath>
</defs>
</svg>
