<svg width="50" height="50" viewBox="0 0 50 50" fill="none" xmlns="http://www.w3.org/2000/svg">
<g clip-path="url(#clip0_34_348)">
<path d="M25.0062 17.1875C25.0062 18.4307 24.5124 19.623 23.6333 20.5021C22.7542 21.3811 21.5619 21.875 20.3187 21.875C19.0755 21.875 17.8832 21.3811 17.0042 20.5021C16.1251 19.623 15.6312 18.4307 15.6312 17.1875C15.6312 15.9443 16.1251 14.752 17.0042 13.8729C17.8832 12.9939 19.0755 12.5 20.3187 12.5C21.5619 12.5 22.7542 12.9939 23.6333 13.8729C24.5124 14.752 25.0062 15.9443 25.0062 17.1875Z" fill="#F5EBDA"/>
<path d="M37.5 0H12.5C10.8424 0 9.25268 0.65848 8.08058 1.83058C6.90848 3.00269 6.25 4.5924 6.25 6.25V43.75C6.25 45.4076 6.90848 46.9973 8.08058 48.1694C9.25268 49.3415 10.8424 50 12.5 50H37.5C39.1576 50 40.7473 49.3415 41.9194 48.1694C43.0915 46.9973 43.75 45.4076 43.75 43.75V6.25C43.75 4.5924 43.0915 3.00269 41.9194 1.83058C40.7473 0.65848 39.1576 0 37.5 0ZM9.375 6.25C9.375 5.4212 9.70424 4.62634 10.2903 4.04029C10.8763 3.45424 11.6712 3.125 12.5 3.125H37.5C38.3288 3.125 39.1237 3.45424 39.7097 4.04029C40.2958 4.62634 40.625 5.4212 40.625 6.25V31.25L34.1156 24.7406C33.9552 24.5804 33.7617 24.457 33.5488 24.3791C33.3359 24.3011 33.1085 24.2704 32.8825 24.2892C32.6566 24.3079 32.4374 24.3756 32.2402 24.4876C32.043 24.5995 31.8725 24.753 31.7406 24.9375L25 34.375L18.2344 30.3125C17.9352 30.1334 17.5848 30.0595 17.2388 30.1025C16.8928 30.1455 16.5711 30.3031 16.325 30.55L9.375 37.5V6.25Z" fill="#F5EBDA"/>
</g>
<defs>
<clipPath id="clip0_34_348">
<rect width="50" height="50" fill="white"/>
</clipPath>
</defs>
</svg>
