<svg width="36" height="36" viewBox="0 0 36 36" fill="none" xmlns="http://www.w3.org/2000/svg">
<path d="M2.05665 2.258C1.21704 3.21755 0.75 4.51262 0.75 5.85714V30.1429C0.75 31.4874 1.21704 32.7824 2.05665 33.742C2.89719 34.7026 4.04493 35.25 5.25 35.25H30.75C31.9551 35.25 33.1028 34.7026 33.9433 33.742C34.783 32.7824 35.25 31.4874 35.25 30.1429V5.85714C35.25 4.51262 34.783 3.21755 33.9433 2.258C33.1028 1.29738 31.9551 0.75 30.75 0.75H5.25C4.04493 0.75 2.89719 1.29738 2.05665 2.258ZM30.75 32.3214H11.875V3.67857H30.75C31.2357 3.67857 31.7095 3.89879 32.0645 4.30451C32.4204 4.71129 32.625 5.26937 32.625 5.85714V30.1429C32.625 30.7306 32.4204 31.2887 32.0645 31.6955C31.7095 32.1012 31.2357 32.3214 30.75 32.3214ZM5.25 3.67857H9.25V32.3214H5.25C4.76431 32.3214 4.29055 32.1012 3.93554 31.6955C3.57961 31.2887 3.375 30.7306 3.375 30.1429V5.85714C3.375 5.26937 3.57961 4.71129 3.93554 4.30451C4.29055 3.89879 4.76431 3.67857 5.25 3.67857Z" fill="#716156" stroke="#716156" stroke-width="0.5"/>
</svg>
