<svg width="34" height="34" viewBox="0 0 34 34" fill="none" xmlns="http://www.w3.org/2000/svg">
<path d="M10.625 6.375C10.625 4.68425 11.2967 3.06274 12.4922 1.86719C13.6877 0.67165 15.3092 0 17 0C18.6908 0 20.3123 0.67165 21.5078 1.86719C22.7034 3.06274 23.375 4.68425 23.375 6.375V17C23.375 18.6908 22.7034 20.3123 21.5078 21.5078C20.3123 22.7034 18.6908 23.375 17 23.375C15.3092 23.375 13.6877 22.7034 12.4922 21.5078C11.2967 20.3123 10.625 18.6908 10.625 17V6.375Z" fill="#716156"/>
<path d="M7.4375 13.8125C7.71929 13.8125 7.98954 13.9244 8.1888 14.1237C8.38806 14.323 8.5 14.5932 8.5 14.875V17C8.5 19.2543 9.39553 21.4163 10.9896 23.0104C12.5837 24.6045 14.7457 25.5 17 25.5C19.2543 25.5 21.4163 24.6045 23.0104 23.0104C24.6045 21.4163 25.5 19.2543 25.5 17V14.875C25.5 14.5932 25.6119 14.323 25.8112 14.1237C26.0105 13.9244 26.2807 13.8125 26.5625 13.8125C26.8443 13.8125 27.1145 13.9244 27.3138 14.1237C27.5131 14.323 27.625 14.5932 27.625 14.875V17C27.625 19.634 26.6467 22.1741 24.8798 24.1276C23.1128 26.081 20.6833 27.3085 18.0625 27.5719V31.875H24.4375C24.7193 31.875 24.9895 31.9869 25.1888 32.1862C25.3881 32.3855 25.5 32.6557 25.5 32.9375C25.5 33.2193 25.3881 33.4895 25.1888 33.6888C24.9895 33.8881 24.7193 34 24.4375 34H9.5625C9.28071 34 9.01046 33.8881 8.8112 33.6888C8.61194 33.4895 8.5 33.2193 8.5 32.9375C8.5 32.6557 8.61194 32.3855 8.8112 32.1862C9.01046 31.9869 9.28071 31.875 9.5625 31.875H15.9375V27.5719C13.3167 27.3085 10.8872 26.081 9.12024 24.1276C7.35332 22.1741 6.37497 19.634 6.375 17V14.875C6.375 14.5932 6.48694 14.323 6.6862 14.1237C6.88546 13.9244 7.15571 13.8125 7.4375 13.8125Z" fill="#716156"/>
</svg>
