<svg width="34" height="34" viewBox="0 0 34 34" fill="none" xmlns="http://www.w3.org/2000/svg">
<g clip-path="url(#clip0_28_79)">
<path d="M29.75 2.125C30.3136 2.125 30.8541 2.34888 31.2526 2.7474C31.6511 3.14591 31.875 3.68641 31.875 4.25V29.75C31.875 30.3136 31.6511 30.8541 31.2526 31.2526C30.8541 31.6511 30.3136 31.875 29.75 31.875H4.25C3.68641 31.875 3.14591 31.6511 2.7474 31.2526C2.34888 30.8541 2.125 30.3136 2.125 29.75V4.25C2.125 3.68641 2.34888 3.14591 2.7474 2.7474C3.14591 2.34888 3.68641 2.125 4.25 2.125H29.75ZM4.25 0C3.12283 0 2.04183 0.447767 1.2448 1.2448C0.447767 2.04183 0 3.12283 0 4.25L0 29.75C0 30.8772 0.447767 31.9582 1.2448 32.7552C2.04183 33.5522 3.12283 34 4.25 34H29.75C30.8772 34 31.9582 33.5522 32.7552 32.7552C33.5522 31.9582 34 30.8772 34 29.75V4.25C34 3.12283 33.5522 2.04183 32.7552 1.2448C31.9582 0.447767 30.8772 0 29.75 0L4.25 0Z" fill="#716156"/>
<path d="M17 8.5C17.2818 8.5 17.552 8.61194 17.7513 8.8112C17.9506 9.01046 18.0625 9.28071 18.0625 9.5625V15.9375H24.4375C24.7193 15.9375 24.9895 16.0494 25.1888 16.2487C25.3881 16.448 25.5 16.7182 25.5 17C25.5 17.2818 25.3881 17.552 25.1888 17.7513C24.9895 17.9506 24.7193 18.0625 24.4375 18.0625H18.0625V24.4375C18.0625 24.7193 17.9506 24.9895 17.7513 25.1888C17.552 25.3881 17.2818 25.5 17 25.5C16.7182 25.5 16.448 25.3881 16.2487 25.1888C16.0494 24.9895 15.9375 24.7193 15.9375 24.4375V18.0625H9.5625C9.28071 18.0625 9.01046 17.9506 8.8112 17.7513C8.61194 17.552 8.5 17.2818 8.5 17C8.5 16.7182 8.61194 16.448 8.8112 16.2487C9.01046 16.0494 9.28071 15.9375 9.5625 15.9375H15.9375V9.5625C15.9375 9.28071 16.0494 9.01046 16.2487 8.8112C16.448 8.61194 16.7182 8.5 17 8.5Z" fill="#716156"/>
</g>
<defs>
<clipPath id="clip0_28_79">
<rect width="34" height="34" fill="white"/>
</clipPath>
</defs>
</svg>
