<svg width="50" height="50" viewBox="0 0 50 50" fill="none" xmlns="http://www.w3.org/2000/svg">
<path d="M43.75 43.75V14.0625L29.6875 0H12.5C10.8424 0 9.25268 0.65848 8.08058 1.83058C6.90848 3.00269 6.25 4.5924 6.25 6.25V43.75C6.25 45.4076 6.90848 46.9973 8.08058 48.1694C9.25268 49.3415 10.8424 50 12.5 50H37.5C39.1576 50 40.7473 49.3415 41.9194 48.1694C43.0915 46.9973 43.75 45.4076 43.75 43.75ZM29.6875 9.375C29.6875 10.6182 30.1814 11.8105 31.0604 12.6896C31.9395 13.5686 33.1318 14.0625 34.375 14.0625H40.625V43.75C40.625 44.5788 40.2958 45.3737 39.7097 45.9597C39.1237 46.5458 38.3288 46.875 37.5 46.875H12.5C11.6712 46.875 10.8763 46.5458 10.2903 45.9597C9.70424 45.3737 9.375 44.5788 9.375 43.75V6.25C9.375 5.4212 9.70424 4.62634 10.2903 4.04029C10.8763 3.45424 11.6712 3.125 12.5 3.125H29.6875V9.375Z" fill="#F5EBDA"/>
<path d="M14.3844 44.0219C13.7735 43.7812 13.2818 43.3097 13.0156 42.7094C12.4063 41.4969 12.6094 40.2844 13.2656 39.2657C13.8844 38.3063 14.9094 37.4907 16.0688 36.8063C17.5375 35.9738 19.0898 35.2982 20.7 34.7907C21.9484 32.5414 23.0568 30.2172 24.0188 27.8313C23.4455 26.5273 22.9956 25.1724 22.675 23.7844C22.4063 22.5344 22.3031 21.2969 22.5313 20.2344C22.7656 19.1282 23.3875 18.1344 24.5625 17.6625C25.1625 17.4219 25.8125 17.2875 26.4438 17.4219C26.7613 17.4895 27.0598 17.6269 27.3176 17.8242C27.5754 18.0215 27.7861 18.2737 27.9344 18.5625C28.2094 19.075 28.3094 19.675 28.3313 20.2438C28.3531 20.8313 28.2938 21.4813 28.1844 22.1625C27.9219 23.7563 27.3406 25.7063 26.5594 27.7688C27.4222 29.6123 28.4471 31.3754 29.6219 33.0375C31.0128 32.929 32.4117 32.9814 33.7906 33.1938C34.9281 33.4 36.0844 33.8032 36.7906 34.6469C37.1656 35.0969 37.3938 35.6469 37.4156 36.2657C37.4375 36.8657 37.2688 37.4594 36.9844 38.025C36.7381 38.5492 36.3561 38.998 35.8781 39.325C35.4053 39.6325 34.8477 39.7833 34.2844 39.7563C33.25 39.7125 32.2406 39.1438 31.3688 38.4532C30.3083 37.5768 29.353 36.5806 28.5219 35.4844C26.4087 35.725 24.3206 36.1496 22.2813 36.7532C21.3475 38.4093 20.2816 39.9874 19.0938 41.4719C18.1813 42.5657 17.1906 43.5219 16.1969 43.9313C15.6254 44.1875 14.9786 44.2198 14.3844 44.0219ZM18.6938 38.0813C18.1729 38.3209 17.6948 38.5688 17.2594 38.825C16.2344 39.4313 15.5688 40.0219 15.2375 40.5344C14.9438 40.9875 14.9375 41.3157 15.1125 41.6625C15.1458 41.7292 15.1729 41.775 15.1938 41.8L15.3031 41.7625C15.7313 41.5875 16.4125 41.0282 17.2875 39.975C17.7858 39.3663 18.2551 38.7343 18.6938 38.0813ZM23.8188 33.925C24.8625 33.6825 25.9154 33.4813 26.975 33.3219C26.4068 32.4507 25.8751 31.5561 25.3813 30.6407C24.8908 31.7486 24.3698 32.8428 23.8188 33.9219V33.925ZM31.4625 35.3313C31.9333 35.8417 32.3865 36.2688 32.8219 36.6125C33.5719 37.2063 34.0938 37.4032 34.3781 37.4125C34.4543 37.4245 34.5322 37.4078 34.5969 37.3657C34.7276 37.2637 34.829 37.1289 34.8906 36.975C35.0013 36.7845 35.0645 36.5701 35.075 36.35C35.0718 36.2769 35.0431 36.2073 34.9938 36.1532C34.8313 35.9594 34.3688 35.6782 33.375 35.5C32.7427 35.3959 32.1033 35.3405 31.4625 35.3344V35.3313ZM25.2438 24.375C25.5044 23.526 25.7131 22.6619 25.8688 21.7875C25.9646 21.2 26.0042 20.7157 25.9875 20.3344C25.9891 20.124 25.9553 19.9149 25.8875 19.7157C25.731 19.7343 25.5783 19.7764 25.4344 19.8407C25.1625 19.95 24.9406 20.1719 24.8219 20.725C24.6969 21.325 24.7281 22.1907 24.9656 23.2938C25.0406 23.6417 25.1344 24.0021 25.2469 24.375H25.2438Z" fill="#F5EBDA"/>
</svg>
