<svg width="127" height="127" viewBox="0 0 127 127" fill="none" xmlns="http://www.w3.org/2000/svg">
<path d="M107.906 18.514C95.9673 6.57527 80.0942 0 63.21 0C46.3258 0 30.4527 6.57527 18.514 18.514C6.57295 30.4527 0 46.3258 0 63.21C0 80.0942 6.57295 95.9673 18.514 107.906C30.4527 119.845 46.3258 126.42 63.21 126.42C80.0942 126.42 95.9673 119.845 107.906 107.906C119.845 95.9673 126.42 80.0942 126.42 63.21C126.42 46.3258 119.845 30.4527 107.906 18.514ZM63.21 120.354C31.6996 120.354 6.06393 94.7205 6.06393 63.21C6.06393 31.6996 31.6996 6.06392 63.21 6.06392C94.7205 6.06392 120.354 31.6996 120.354 63.21C120.354 94.7205 94.7205 120.354 63.21 120.354Z" fill="#0D0D0D"/>
<path d="M49.2866 82.7724C44.591 82.7724 40.771 78.9524 40.771 74.2567C40.771 69.5611 44.591 65.7411 49.2866 65.7411C53.9823 65.7411 57.8023 69.5611 57.8023 74.2567C57.8023 78.9524 53.9823 82.7724 49.2866 82.7724ZM49.2866 67.7095C45.6768 67.7095 42.7394 70.6469 42.7394 74.2567C42.7394 77.8666 45.6768 80.8063 49.2866 80.8063C52.8965 80.8063 55.8339 77.8689 55.8339 74.2567C55.8339 70.6445 52.8965 67.7095 49.2866 67.7095Z" fill="#0D0D0D"/>
<path d="M74.3569 82.9242C69.6613 82.9242 65.8413 79.1042 65.8413 74.4086C65.8413 69.713 69.6613 65.8929 74.3569 65.8929C79.0526 65.8929 82.8726 69.713 82.8726 74.4086C82.8726 79.1042 79.0526 82.9242 74.3569 82.9242ZM74.3569 67.8613C70.7471 67.8613 67.8097 70.7987 67.8097 74.4086C67.8097 78.0185 70.7471 80.9558 74.3569 80.9558C77.9668 80.9558 80.9042 78.0185 80.9042 74.4086C80.9042 70.7987 77.9668 67.8613 74.3569 67.8613Z" fill="#0D0D0D"/>
<path d="M73.638 78.0044C75.2255 78.0044 76.5124 76.7175 76.5124 75.1301C76.5124 73.5426 75.2255 72.2557 73.638 72.2557C72.0506 72.2557 70.7637 73.5426 70.7637 75.1301C70.7637 76.7175 72.0506 78.0044 73.638 78.0044Z" fill="#0D0D0D"/>
<path d="M72.8253 74.2544C73.1735 74.2544 73.4557 73.9721 73.4557 73.624C73.4557 73.2758 73.1735 72.9935 72.8253 72.9935C72.4771 72.9935 72.1948 73.2758 72.1948 73.624C72.1948 73.9721 72.4771 74.2544 72.8253 74.2544Z" fill="#FCFCFC"/>
<path d="M48.5111 77.9086C50.0985 77.9086 51.3854 76.6217 51.3854 75.0343C51.3854 73.4468 50.0985 72.1599 48.5111 72.1599C46.9236 72.1599 45.6367 73.4468 45.6367 75.0343C45.6367 76.6217 46.9236 77.9086 48.5111 77.9086Z" fill="#0D0D0D"/>
<path d="M47.6964 74.161C48.0445 74.161 48.3268 73.8788 48.3268 73.5306C48.3268 73.1824 48.0445 72.9001 47.6964 72.9001C47.3482 72.9001 47.0659 73.1824 47.0659 73.5306C47.0659 73.8788 47.3482 74.161 47.6964 74.161Z" fill="#FCFCFC"/>
<path d="M67.9685 91.0172C67.9685 91.0172 66.0795 93.065 63.901 93.637C63.7726 93.6697 63.6441 93.7048 63.5134 93.7164C62.1591 93.8449 60.7861 93.6767 59.5206 93.2424C59.2381 93.1444 58.9438 93.3522 58.9438 93.651V94.5944C58.9438 94.9516 59.182 95.2668 59.5276 95.3602C60.9636 95.7572 62.493 95.8739 64.0178 95.6848L64.2232 95.6404C66.3481 95.017 68.2184 93.8075 69.6193 92.1987C69.8365 91.9465 70.0443 91.685 70.2404 91.4141C70.4529 91.1199 70.2451 90.709 69.8832 90.709H68.7624C68.4682 90.709 68.1857 90.8187 67.9709 91.0172H67.9685Z" fill="#0D0D0D"/>
<path d="M97.9637 46.09C97.5901 41.5882 94.1461 37.9573 88.9671 36.6123C88.0238 36.3812 87.2789 36.1967 86.9333 35.4122C86.6648 34.8051 85.488 33.236 84.6124 32.4C83.5243 31.347 82.3475 30.5391 80.6733 29.6985C79.5408 29.1334 79.2419 29.026 77.1662 28.6104C75.6297 28.3139 74.558 28.1667 73.8878 28.1667C72.6807 28.1761 70.9621 28.4026 69.5121 28.7458L68.9307 28.8859C68.7649 28.9279 68.5968 28.9466 68.431 28.9466C68.0364 28.9466 67.6558 28.8345 67.3289 28.6244L66.5981 28.1457C65.2438 27.2491 64.4242 26.8358 63.1283 26.4832V24.8441C64.618 24.5966 65.7458 23.3777 65.7458 21.909C65.7458 20.2605 64.3238 18.9249 62.5656 18.9249C60.8073 18.9249 59.3853 20.2605 59.3853 21.909C59.3853 23.3777 60.5155 24.5966 62.0052 24.8441V26.2124C61.6573 26.1377 61.328 26.0723 61.0081 26.0209C60.2866 25.9018 59.6235 25.8458 58.972 25.8458C57.968 25.8458 56.9593 25.9742 55.7008 26.2637C54.3605 26.5743 53.8982 26.7658 52.3921 27.6344C51.3577 28.2298 50.3934 28.8976 50.1692 29.1334L49.9334 29.3949C49.5691 29.7802 49.0367 30.002 48.4787 30.002H48.383L47.5307 29.9623C46.8605 29.9273 46.4122 29.9133 46.0293 29.9133C45.3031 29.9133 44.7567 29.9647 43.8671 30.1118C41.8637 30.4387 39.5381 31.4521 37.9456 32.6896C36.61 33.7473 35.2628 35.6083 34.7421 37.1167C34.4362 38.011 34.184 38.4173 33.3878 38.9099C31.7626 39.921 30.0464 41.824 29.3039 43.4351C28.0687 46.0877 28.1668 49.3076 29.5608 51.841C30.1305 52.8754 31.4544 54.4422 32.281 55.0703C32.5122 55.2407 32.6966 55.4135 32.8344 55.584C33.1099 55.9155 33.2547 56.2658 33.264 56.6324V56.6534C33.2664 58.3066 33.4088 59.2382 33.773 59.9714C33.8781 60.1909 34.0112 60.4057 34.184 60.6369V63.9525C34.184 64.1276 34.0929 64.2911 33.9435 64.3868L32.8671 65.0616C32.4304 65.3372 32.1666 65.8158 32.1666 66.3295V68.7415C32.1666 68.9587 32.0288 69.1525 31.821 69.2249L31.2186 69.4327C31.0108 69.5051 30.873 69.6989 30.873 69.916V78.6091C30.873 78.8263 31.0108 79.0201 31.2186 79.0925L31.821 79.3003C32.0288 79.3727 32.1666 79.5665 32.1666 79.7836V81.3341C32.1666 81.696 32.2973 82.0462 32.5355 82.3194L34.0579 84.059C34.1396 84.1524 34.184 84.2714 34.184 84.3952V88.5538C34.184 91.1363 35.3842 93.5436 37.3152 94.8372L54.8788 107.493H68.7626L86.3286 94.8372C88.2596 93.5436 89.4598 91.1363 89.4598 88.5538V84.1991C89.4598 84.073 89.5065 83.9516 89.5882 83.8582L91.0219 82.2213C91.2624 81.9481 91.3931 81.5979 91.3931 81.236V79.9307C91.3931 79.7136 91.5309 79.5174 91.7387 79.4474L92.3411 79.2373C92.5489 79.1672 92.6867 78.9711 92.6867 78.7539V70.0608C92.6867 69.8437 92.5489 69.6499 92.3411 69.5775L91.7387 69.3697C91.5309 69.2973 91.3931 69.1035 91.3931 68.8863V66.2338C91.3931 65.7178 91.1269 65.2391 90.6903 64.9659L89.7003 64.3425C89.5508 64.2491 89.4598 64.0856 89.4598 63.9105V59.9551C89.4598 59.369 89.3991 58.0357 89.2777 57.1227C89.2753 57.0877 89.2706 57.0527 89.2636 57.02L89.2566 56.9663L89.2216 56.7328C89.9198 56.5437 90.6599 56.2915 91.3347 56.0136C92.0913 55.7101 92.7474 55.3832 93.1817 55.096C94.543 54.197 95.9814 52.6793 96.7589 51.318C97.5154 50.0057 98.0898 47.512 97.9637 46.09ZM69.4981 41.4691C71.0719 39.1271 71.5179 36.3578 70.7543 33.6726C70.6049 33.1239 70.4484 32.7013 70.3807 32.5518L70.3574 32.5051L70.348 32.4981L70.3224 32.4538C70.0258 31.9447 70.0211 31.3773 70.3083 30.9734C70.6889 30.441 72.0432 30.1211 73.9322 30.1211H73.9416C74.0069 30.1211 74.07 30.1211 74.1307 30.1234C75.4967 30.1491 78.1422 30.7726 79.3704 31.3587C81.647 32.4304 83.7017 34.3451 84.603 36.2341C85.7985 38.7161 86.0134 40.911 85.2965 43.3487C84.5493 45.8518 82.9009 47.9229 80.5309 49.3356C80.225 49.5177 79.9494 49.6672 79.6879 49.7933C78.7749 50.2462 77.7849 50.5918 76.7482 50.8206C76.5567 50.865 76.3629 50.9024 76.1831 50.9351C75.3239 51.0915 74.4319 51.1709 73.5283 51.1709C73.08 51.1709 72.6433 51.1545 72.23 51.1195C69.414 50.886 67.0884 49.4313 65.6804 47.0146C65.4493 46.634 65.3815 46.1834 65.4819 45.7467C65.5777 45.3475 65.8205 44.9855 66.1614 44.7264L66.8129 44.2477C67.0627 44.0632 67.3242 43.8554 67.5858 43.6289C68.333 42.9798 68.9774 42.2536 69.4981 41.4691ZM52.7003 30.2379C53.0132 28.9023 56.7095 28.029 57.6038 27.8865C58.0381 27.8282 58.4887 27.7978 58.9394 27.7978C60.7069 27.7978 62.4698 28.2205 63.9035 28.9887C65.3675 29.7592 66.486 30.7189 67.2285 31.842C68.9354 34.3614 69.0731 37.537 67.5951 40.1288C67.448 40.3786 67.2869 40.6238 67.1164 40.8597C67.0767 40.9157 67.0324 40.9717 66.9927 41.0231L66.8853 41.1609L66.8643 41.1959L66.7872 41.2776C66.2945 41.866 65.7178 42.4171 65.2461 42.751C64.8632 43.0288 64.5503 43.1666 64.2374 43.2016H64.2001L64.1464 43.204C63.5533 43.204 63.2637 42.8164 62.5282 41.6162L62.3881 41.385L62.3554 41.3266C62.2363 41.1305 62.1243 40.9297 62.0192 40.7476L61.9935 40.7032C61.4495 39.7482 60.8937 38.8516 60.3404 38.0343C58.3136 35.0432 56.2822 33.0865 53.9472 31.877L53.9192 31.863C53.235 31.4801 52.5205 31.0107 52.7003 30.2379ZM38.1371 35.8978C38.3005 35.0783 39.7342 33.9995 40.911 33.3224C42.0949 32.6359 42.9145 32.295 43.8368 32.1035C44.6423 31.9307 45.2798 31.8233 45.9639 31.8233C46.7368 31.8233 47.5424 31.9541 48.7565 32.1946C50.6058 32.5682 51.0798 32.7013 52.3664 33.4111C54.0593 34.3077 55.626 35.6153 56.9033 37.1961C57.1741 37.5276 57.5454 38.046 57.9493 38.6508C58.491 39.4657 59.0841 40.416 59.6212 41.3313C60.0158 42.0038 60.331 42.5642 60.5832 43.0452C61.1156 44.0446 61.9001 45.4549 62.0472 45.6907L62.0542 45.7047L62.0659 45.7187C62.1219 45.8005 62.4955 46.3935 62.8738 47.0146C64.7418 50.1622 66.6261 51.7103 69.5962 52.5392C70.8804 52.9034 72.5569 53.1276 73.9672 53.1276C74.3945 53.1276 74.7681 53.1089 75.109 53.0692C75.2118 53.0575 75.3028 53.0505 75.4009 53.0505C76.1271 53.0505 76.5661 53.4381 77.2339 54.0219C78.1842 54.8695 80.1082 55.9973 80.9091 56.2541C82.2004 56.6557 82.2424 57.3912 82.156 57.7929C81.9365 58.7339 79.1322 60.0461 77.8153 60.5318C76.454 60.9801 74.9292 61.2159 73.4068 61.2159C72.2557 61.2159 71.1443 61.0828 70.1099 60.819C66.6681 59.9294 64.6227 58.4653 61.3561 54.5543C57.9844 50.5241 56.0043 48.8102 53.2164 47.5073L52.4762 47.1547C52.196 47.024 51.9531 46.8278 51.771 46.5873C51.6636 46.4496 51.5795 46.2931 51.5165 46.1203L51.2083 45.2541C51.1055 44.9669 50.9958 44.6937 50.872 44.4158C50.7413 44.1193 50.6035 43.8391 50.4517 43.5612C48.8009 40.5211 45.9219 38.3822 42.3494 37.5393C41.4831 37.3245 40.5515 37.2078 40.1148 37.2078C39.0804 37.1914 38.5294 37.1587 38.2492 36.6263C38.1254 36.4045 38.0857 36.1477 38.1371 35.8978ZM33.5956 52.8941C32.9768 52.8941 32.6056 52.4551 32.3767 52.1189C30.6092 49.6485 30.3033 46.564 31.5782 44.0702C33.0585 41.1795 35.8792 39.3256 39.1201 39.1061C39.2229 39.0991 39.3279 39.0968 39.44 39.0968C40.8854 39.0968 42.8164 39.5777 44.0306 40.2362C45.2611 40.9017 45.9569 41.4481 46.8979 42.4871C48.1331 43.8321 48.3222 44.5863 48.2639 44.9832C48.2242 45.2471 48.0864 45.4806 47.8739 45.6417C47.6171 45.8472 47.442 45.8612 45.9359 45.9312H45.9056C42.0155 46.0503 38.7442 47.54 36.1851 50.3583C35.7811 50.8136 35.2628 51.4814 35.0059 51.8457C34.7747 52.2123 34.3451 52.8941 33.5956 52.8941ZM87.0361 88.5538C87.0361 90.1346 86.3005 91.6126 85.1167 92.4042L69.9744 103.374C69.1875 103.944 68.2396 104.252 67.2659 104.252H56.3756C55.4019 104.252 54.4539 103.944 53.667 103.374L38.527 92.4042C37.5977 91.7831 36.9439 90.737 36.7081 89.5532L40.6635 92.1987C41.5975 92.8245 42.6833 93.1537 43.8041 93.1537H47.3859C47.6708 93.9289 48.4156 94.4799 49.2866 94.4799C50.4284 94.4799 51.346 93.5389 51.3133 92.3925C51.2807 91.246 50.307 90.3797 49.1955 90.4288C48.3619 90.4661 47.6591 91.0055 47.3836 91.7527H43.8041C42.9612 91.7527 42.1439 91.5052 41.4434 91.0359L36.6077 87.8019V62.5585C36.6894 62.5936 36.7735 62.6309 36.8599 62.6683C36.8902 62.6823 36.9206 62.694 36.9533 62.7057L36.9673 62.7127C37.8195 63.0676 38.2842 63.1586 39.2275 63.1586H39.384C40.6635 63.154 41.9268 62.9088 43.1386 62.4325L44.152 62.0355C45.1584 61.6409 46.1134 61.1832 46.9913 60.6742L47.1127 60.5995C49.4267 59.2476 50.6105 58.6545 52.2357 58.6545C52.6676 58.6545 53.13 58.6918 53.7884 58.7759L54.4632 58.8576C54.5753 58.8716 54.6804 58.8016 54.7131 58.6942L55.1264 57.3305C55.1684 57.1928 55.075 57.0503 54.9325 57.0317L54.3698 56.9593C53.4545 56.8402 52.7283 56.7818 52.0839 56.7818C50.2533 56.7818 48.8756 57.2325 46.6224 58.5681C43.7177 60.303 42.9682 60.6696 41.5999 61.0221C40.89 61.2043 40.2199 61.2953 39.6081 61.2953C37.8265 61.2953 36.512 60.5295 35.9025 59.1355C35.8722 59.0678 35.8418 59.0001 35.8138 58.923C35.5103 58.0777 35.543 57.6458 35.8348 56.3732C35.8558 56.2658 35.8815 56.1561 35.9095 56.0393L35.9586 55.8408C36.3018 54.3581 36.5073 53.7183 37.056 52.8474C37.056 52.8474 37.084 52.8007 37.0887 52.789L37.1027 52.768C38.6835 50.3069 41.1959 48.6281 44.18 48.0444C44.5139 47.979 44.8478 47.9253 45.1747 47.8926C45.4175 47.8622 45.6744 47.8412 45.9546 47.8272C46.0573 47.8249 46.1577 47.8225 46.2628 47.8225C46.8816 47.8225 47.5657 47.8926 48.3012 48.0303C49.6929 48.2872 51.1149 48.7565 52.308 49.3496C54.6267 50.4844 56.1397 51.8434 59.3457 55.6774C63.189 60.2866 65.7902 61.9491 70.4765 62.7897C71.8167 63.0255 72.8161 63.14 73.5283 63.14C73.582 63.14 73.6333 63.14 73.6824 63.1376C78.4854 63.0279 81.9505 61.5218 85.6398 57.9446C85.8336 57.7578 86.0367 57.5944 86.2258 57.4706C86.415 57.3469 86.6064 57.2535 86.7956 57.1951L86.8376 57.3866C86.9683 58.1525 87.0361 59.474 87.0361 59.9551V88.5538ZM95.0824 48.7869L95.073 48.8336L95.052 48.892C94.4566 50.5825 94.4146 50.6642 93.5343 51.7943L93.5203 51.8107L93.4946 51.8387C92.1987 53.3121 90.4615 54.3698 88.4674 54.8975C88.1008 55.0002 87.6969 55.0843 87.2649 55.152C87.2649 55.152 87.1949 55.1637 87.1692 55.166C86.868 55.2081 86.5644 55.2267 86.2422 55.2267C85.7215 55.2267 85.1167 55.1777 84.2878 55.0633C82.7327 54.8321 82.233 54.6897 81.3037 54.2064C81.2687 54.19 81.2337 54.1713 81.194 54.148C80.1526 53.5923 79.9985 53.3004 79.9308 53.1766L79.8163 52.9618V52.9315L79.814 52.747C79.779 52.0442 80.4421 51.6566 81.1683 51.339C81.7824 51.0518 82.4455 50.6502 83.0806 50.1762C83.6574 49.7536 84.2388 49.2469 84.8132 48.6748C86.6321 46.8675 87.5544 45.0533 87.9934 42.4171C88.1569 41.5111 88.2829 40.5328 88.2993 40.2993C88.346 39.3863 88.7056 38.924 89.3711 38.924C89.6209 38.924 89.8217 39.008 90.0412 39.0991C90.4872 39.2672 91.3698 39.8183 91.7247 40.0447C93.6534 41.3173 94.933 43.239 95.3229 45.4525C95.3533 45.637 95.3719 45.8121 95.3836 46.0199C95.4373 47.2248 95.4069 47.3906 95.0824 48.7869Z" fill="#0D0D0D"/>
<path d="M89.28 57.1251H89.2777C89.2777 57.0901 89.2707 57.055 89.2637 57.0223L89.28 57.1251Z" fill="#0D0D0D"/>
</svg>
