<svg width="147" height="49" viewBox="0 0 147 49" fill="none" xmlns="http://www.w3.org/2000/svg">
<rect width="49" height="49" fill="#DAB576"/>
<path d="M15.8 29.08L11.68 39H9.64L21.68 10.2H22.8L34.88 39H32.72L28.6 29.08H15.8ZM22.12 13.4C22.0933 13.4267 22.04 13.5867 21.96 13.88C21.5867 15.0267 21.2267 16 20.88 16.8L16.48 27.44H27.92L23.52 16.84C22.5867 14.8133 22.12 13.6667 22.12 13.4ZM40.8034 39V10.4H42.7234V39H40.8034ZM58.0244 14.16C56.5844 14.16 55.411 14.5067 54.5044 15.2C53.5977 15.8933 53.1444 16.8667 53.1444 18.12C53.1444 19.56 53.7444 20.8533 54.9444 22C55.7977 22.8267 56.891 23.7067 58.2244 24.64C59.5844 25.5467 60.5177 26.2 61.0244 26.6C61.531 27 62.1444 27.5467 62.8644 28.24C64.171 29.5467 64.8244 31.0533 64.8244 32.76C64.8244 34.9733 64.0777 36.6533 62.5844 37.8C61.1177 38.92 59.051 39.48 56.3844 39.48C53.7444 39.48 51.531 38.7867 49.7444 37.4L50.7044 36C52.5177 37.2267 54.4377 37.84 56.4644 37.84C58.491 37.84 60.0644 37.4133 61.1844 36.56C62.331 35.7067 62.9044 34.5067 62.9044 32.96C62.9044 31.6267 62.331 30.4 61.1844 29.28C60.3844 28.48 59.3044 27.6133 57.9444 26.68C56.611 25.7467 55.6777 25.08 55.1444 24.68C54.611 24.2533 53.9844 23.6933 53.2644 23C51.9044 21.64 51.2244 20.0667 51.2244 18.28C51.2244 16.4933 51.851 15.0933 53.1044 14.08C54.3844 13.0667 56.1444 12.56 58.3844 12.56C60.6244 12.56 62.6377 13 64.4244 13.88L63.7444 15.36C62.091 14.56 60.1844 14.16 58.0244 14.16ZM92.0784 39V25.88H74.0384V39H72.1984V13.04H74.0384V24.24H92.0784V13.04H93.9184V39H92.0784ZM104.807 30L101.087 39H99.2066L110.087 12.88H111.167L122.127 39H120.087L116.327 30H104.807ZM110.527 15.84C110.127 17.04 109.767 18.04 109.447 18.84L105.447 28.44H115.687L111.727 18.88C111.113 17.3867 110.713 16.3733 110.527 15.84Z" fill="#1E1E1E"/>
<path fill-rule="evenodd" clip-rule="evenodd" d="M128.659 42.3658C128.743 42.2106 128.889 42.0926 129.066 42.0377C129.243 41.9829 129.436 41.9956 129.603 42.0732L137.74 45.8623L145.876 42.0718C145.959 42.0324 146.049 42.0087 146.142 42.002C146.234 41.9953 146.328 42.0057 146.416 42.0327C146.504 42.0597 146.586 42.1027 146.656 42.1593C146.727 42.2158 146.784 42.2848 146.826 42.3622C146.868 42.4397 146.892 42.524 146.899 42.6104C146.905 42.6968 146.893 42.7835 146.864 42.8656C146.834 42.9477 146.787 43.0235 146.726 43.0887C146.665 43.1538 146.59 43.207 146.507 43.2452L138.056 47.1827C137.958 47.2284 137.85 47.2523 137.74 47.2523C137.631 47.2523 137.523 47.2284 137.425 47.1827L128.974 43.2452C128.807 43.1672 128.68 43.0309 128.621 42.866C128.563 42.7012 128.576 42.5213 128.659 42.3658Z" fill="black"/>
</svg>
